<?xml version="1.0" standalone="no"?>
<!DOCTYPE svg PUBLIC "-//W3C//DTD SVG 20010904//EN"
 "http://www.w3.org/TR/2001/REC-SVG-20010904/DTD/svg10.dtd">
<svg version="1.0" xmlns="http://www.w3.org/2000/svg"
 width="500.000000pt" height="500.000000pt" viewBox="0 0 500.000000 500.000000"
 preserveAspectRatio="xMidYMid meet">
<metadata>
Created by potrace 1.11, written by Peter Selinger 2001-2013
</metadata>
<g transform="translate(0.000000,500.000000) scale(0.100000,-0.100000)"
fill="#000000" stroke="none">
<path d="M1265 3525 c-352 -67 -656 -321 -781 -653 -47 -127 -64 -222 -64
-365 0 -149 19 -259 66 -381 107 -277 334 -502 608 -603 156 -57 142 -56 689
-60 l507 -4 0 200 0 201 -460 0 c-296 0 -478 4 -512 11 -74 16 -203 79 -270
133 -98 79 -180 207 -215 337 -27 102 -23 254 11 354 58 168 172 303 319 375
143 70 146 70 664 70 l463 0 0 200 0 200 -477 -1 c-352 -1 -497 -4 -548 -14z"/>
<path d="M2710 3341 l0 -201 463 0 c434 0 467 -1 536 -20 285 -79 473 -328
474 -625 0 -146 -49 -285 -142 -402 -82 -102 -241 -199 -365 -222 -38 -7 -228
-11 -513 -11 l-453 0 0 -200 0 -200 473 0 c422 0 482 2 562 19 322 67 587 272
730 566 74 151 95 238 102 410 6 160 -15 287 -68 426 -63 165 -197 343 -336
449 -88 66 -245 144 -358 177 l-90 27 -507 4 -508 3 0 -200z"/>
<path d="M1670 2500 l0 -210 830 0 830 0 0 210 0 210 -830 0 -830 0 0 -210z"/>
</g>
</svg>
